# xmcd CD database file
#
# Track frame offsets:
#	150
#	12632
#	25219
#	38061
#	49738
#	62094
#	74276
#	87438
#	100788
#	113941
#	126490
#	135864
#	148552
#	160404
#	171172
#	183046
#
# Disc length: 2604 seconds
#
# Revision: 0
# Processed by: cddbd v1.5.1PL0 Copyright (c) Steve Scherf et al.
# Submitted via: CDex 1.50
#
DISCID=db0a2a10
DTITLE=Hank Williams - Country Legends
DYEAR=2003
DGENRE=Country
TTITLE0=Move It On Over
TTITLE1=Honky Tonkin'
TTITLE2=I'm A Long Gone Daddy
TTITLE3=Mansion On The Hill
TTITLE4=Lovesick Blues
TTITLE5=Lost Highway
TTITLE6=Mind Your Own Business
TTITLE7=You're Gonna Change  (Or I'm Gonna Leave)
TTITLE8=Wedding Bells
TTITLE9=I'm So Lonesome I Could Cry
TTITLE10=My Bucket's Got A Hole In It
TTITLE11=I Just Don't Like This Kind Of Livin'
TTITLE12=Long Gone Lonesome Blues
TTITLE13=Why Don't You Love Me
TTITLE14=Why Should We Try Anymore
TTITLE15=They'll Never Take Her Love From Me
EXTD=YEAR: 2003
EXTT0=
EXTT1=
EXTT2=
EXTT3=
EXTT4=
EXTT5=
EXTT6=
EXTT7=
EXTT8=
EXTT9=
EXTT10=
EXTT11=
EXTT12=
EXTT13=
EXTT14=
EXTT15=
PLAYORDER=
